<svg xmlns="http://www.w3.org/2000/svg" viewBox="0 0 6881.51 922.33"><defs><style>.cls-1{fill:#000;}</style></defs><g id="Logo"><path class="cls-1" d="M1022.52,346a337.15,337.15,0,0,1,105.36-76q59.85-27.65,127.81-27.63,74.83,0,120.32,19.57t88.09,56.42q20.73,16.14,42.6,14.4t37.43-16.12q15.54-14.4,15.54-36.28a81.25,81.25,0,0,0-1.72-17.85,44,44,0,0,0-6.91-15,64.25,64.25,0,0,0-14.4-14.39q-64.5-52.95-128.39-76t-152.56-23q-94.44,0-175,35.7a442.84,442.84,0,0,0-141,98.45Q879.16,331,845.18,414.5t-34,180.19q0,97.88,34,181.94t94.44,146.82a433,433,0,0,0,141.61,97.85q81.19,35.17,174.46,35.14,78.29,0,149.11-25.33t133-74.86a63.2,63.2,0,0,0,13.82-20.15,57.67,57.67,0,0,0,4.6-22.46q0-25.29-13.81-39.72a51.78,51.78,0,0,0-34-16.11q-20.18-1.72-40.89,13.24-48.36,35.7-100.75,55.86T1255.69,947q-68,0-127.81-27.06a329.37,329.37,0,0,1-105.36-75.43Q977,796.19,951.7,732.3T926.37,594.69q0-72.54,25.33-136.44T1022.52,346Z" transform="translate(-811.21 -134.11)"/><path class="cls-1" d="M1791.29,145.62q-25.36,0-42.61,16.69t-17.28,43.18V985q0,25.34,17.28,42.62t42.61,17.26q26.48,0,43.17-17.26t16.7-42.62V205.49q0-26.48-16.7-43.18T1791.29,145.62Z" transform="translate(-811.21 -134.11)"/><path class="cls-1" d="M2644.53,145.63h-616q-24.18,0-39.73,15.53t-15.54,39.73q0,24.18,15.54,39.72t39.73,15.55h248.71V985q0,25.35,17.28,42.62t42.59,17.26q25.32,0,42.61-17.26T2397,985V256.16h247.56q24.18,0,39.72-15.55t15.55-39.72q0-24.18-15.55-39.73T2644.53,145.63Z" transform="translate(-811.21 -134.11)"/><path class="cls-1" d="M3563.23,160q-13.82-14.39-34.54-14.4-18.43,0-31.08,7.5a67.65,67.65,0,0,0-21.89,21.29l-274,432.21L2932.22,179q-10.33-16.09-21.87-24.76t-31.09-8.63a60.42,60.42,0,0,0-38.58,13.24,53.58,53.58,0,0,0-20.14,34.54q-3.47,21.33,11.52,45.49l307.43,477.86V985q0,25.34,17.28,42.62t41.45,17.26q25.32,0,42.6-17.26T3258.1,985V716.75l309.74-477.86q13.82-21.85,11.51-43.18T3563.23,160Z" transform="translate(-811.21 -134.11)"/><path class="cls-1" d="M4172.49,145.62q-25.35,0-42.61,16.69t-17.27,43.18V985q0,25.34,17.27,42.62t42.61,17.26q26.48,0,43.18-17.26T4232.36,985V205.49q0-26.48-16.69-43.18T4172.49,145.62Z" transform="translate(-811.21 -134.11)"/><path class="cls-1" d="M5079.63,145.62q-25.34,0-42.61,16.69t-17.26,43.18V835.34l-502-667.83q-18.45-21.88-46.07-21.89-25.33,0-42,16.69t-16.7,43.18V985q0,25.34,16.7,42.62t42,17.26q26.48,0,43.18-17.26T4531.54,985V356.34l502,667.86a48.9,48.9,0,0,0,21.3,15.54q13.24,5.16,24.76,5.18,26.47,0,42.61-17.26T5138.36,985V205.49q0-26.48-16.12-43.18T5079.63,145.62Z" transform="translate(-811.21 -134.11)"/><path class="cls-1" d="M5902.85,271.71q-59.88-60.45-141.06-93.26T5581.6,145.62H5373.18q-25.36,0-42.61,16.69t-17.28,43.18V985q0,25.34,17.28,42.62t42.61,17.26H5581.6q99,0,180.19-32.82t141.06-93.27q59.86-60.44,92.11-142.78t32.24-181.36q0-99-32.24-180.78T5902.85,271.71Zm-33.38,500.88q-42.63,77.73-116.89,122.07T5581.6,939H5433.05V251.55H5581.6q96.7,0,171,43.76t116.89,120.9q42.57,77.18,42.59,178.48Q5912.06,694.88,5869.47,772.59Z" transform="translate(-811.21 -134.11)"/><path class="cls-1" d="M6768,256.17q26.47,0,42.6-15T6826.74,202q0-25.32-16.12-40.88T6768,145.62H6247.55q-25.35,0-42.61,16.69t-17.26,43.18V985q0,25.34,17.26,42.62t42.61,17.26H6768q26.47,0,42.6-15.55t16.12-40.87q0-24.18-16.12-39.16t-42.6-15h-460.6V646.5h330.49q26.46,0,42.59-15.53t16.12-39.73q0-24.18-16.12-39.72T6637.91,536H6307.42V256.17Z" transform="translate(-811.21 -134.11)"/><path class="cls-1" d="M7417.47,590,7680,240q13.8-20.72,12.66-42.6t-15-36.83q-13.82-15-38-15-26.52,0-42.61,17.28L7339,506.21,7091.57,162.9q-12.67-17.28-42.61-17.28-24.15,0-38.56,16.12a66.06,66.06,0,0,0-16.71,38q-2.31,21.87,11.52,40.28l253,350.93L6990.24,948.2a66.59,66.59,0,0,0-13.81,40.87q0,22.45,13.81,39.15t40.3,16.7q24.21,0,41.47-17.26l264.32-351.72,250.39,347.11q9.2,11.51,20.13,16.69c7.3,3.44,15.92,5.18,25.92,5.18q25.29,0,39.72-16.13T7688,989.65a62,62,0,0,0-12.66-41.45Z" transform="translate(-811.21 -134.11)"/></g></svg>